<svg xmlns="http://www.w3.org/2000/svg" xmlns:xlink="http://www.w3.org/1999/xlink" width="500" zoomAndPan="magnify" viewBox="0 0 375 374.999991" height="500" preserveAspectRatio="xMidYMid meet" version="1.0"><defs><clipPath id="d69ee5dcef"><path d="M 0.726562 0.726562 L 308.273438 0.726562 L 308.273438 308.273438 L 0.726562 308.273438 Z M 0.726562 0.726562 " clip-rule="nonzero"/></clipPath><clipPath id="6cc086caa1"><path d="M 17.976562 0.726562 L 291.023438 0.726562 C 295.597656 0.726562 299.984375 2.542969 303.222656 5.777344 C 306.457031 9.015625 308.273438 13.402344 308.273438 17.976562 L 308.273438 291.023438 C 308.273438 295.597656 306.457031 299.984375 303.222656 303.222656 C 299.984375 306.457031 295.597656 308.273438 291.023438 308.273438 L 17.976562 308.273438 C 13.402344 308.273438 9.015625 306.457031 5.777344 303.222656 C 2.542969 299.984375 0.726562 295.597656 0.726562 291.023438 L 0.726562 17.976562 C 0.726562 13.402344 2.542969 9.015625 5.777344 5.777344 C 9.015625 2.542969 13.402344 0.726562 17.976562 0.726562 Z M 17.976562 0.726562 " clip-rule="nonzero"/></clipPath><clipPath id="68fba58b38"><path d="M 0.726562 0.726562 L 308.273438 0.726562 L 308.273438 308.273438 L 0.726562 308.273438 Z M 0.726562 0.726562 " clip-rule="nonzero"/></clipPath><clipPath id="cdaab3025a"><path d="M 17.976562 0.726562 L 291.023438 0.726562 C 295.597656 0.726562 299.984375 2.542969 303.222656 5.777344 C 306.457031 9.015625 308.273438 13.402344 308.273438 17.976562 L 308.273438 291.023438 C 308.273438 295.597656 306.457031 299.984375 303.222656 303.222656 C 299.984375 306.457031 295.597656 308.273438 291.023438 308.273438 L 17.976562 308.273438 C 13.402344 308.273438 9.015625 306.457031 5.777344 303.222656 C 2.542969 299.984375 0.726562 295.597656 0.726562 291.023438 L 0.726562 17.976562 C 0.726562 13.402344 2.542969 9.015625 5.777344 5.777344 C 9.015625 2.542969 13.402344 0.726562 17.976562 0.726562 Z M 17.976562 0.726562 " clip-rule="nonzero"/></clipPath><clipPath id="6224c8d25d"><rect x="0" width="309" y="0" height="309"/></clipPath><clipPath id="1aae150e13"><path d="M 47.148438 64.058594 L 261.386719 64.058594 L 261.386719 252 L 47.148438 252 Z M 47.148438 64.058594 " clip-rule="nonzero"/></clipPath><clipPath id="1d2e178acc"><rect x="0" width="309" y="0" height="309"/></clipPath></defs><g transform="matrix(1, 0, 0, 1, 33, 33)"><g clip-path="url(#1d2e178acc)"><g clip-path="url(#d69ee5dcef)"><g clip-path="url(#6cc086caa1)"><g><g clip-path="url(#6224c8d25d)"><g clip-path="url(#68fba58b38)"><g clip-path="url(#cdaab3025a)"><path fill="#ff914d" d="M 0.726562 0.726562 L 308.273438 0.726562 L 308.273438 308.273438 L 0.726562 308.273438 Z M 0.726562 0.726562 " fill-opacity="1" fill-rule="nonzero"/></g></g></g></g></g></g><g clip-path="url(#1aae150e13)"><path fill="#ffffff" d="M 260.199219 167.886719 L 157.597656 65.84375 C 155.859375 64.117188 153.054688 64.117188 151.316406 65.855469 L 49.019531 167.957031 C 48.179688 168.792969 47.707031 169.925781 47.707031 171.109375 L 47.707031 247.488281 C 47.707031 249.289062 48.796875 250.910156 50.460938 251.597656 C 51.015625 251.828125 51.582031 251.945312 52.164062 251.945312 C 53.320312 251.945312 54.460938 251.492188 55.308594 250.636719 L 154.46875 151.667969 L 253.917969 250.574219 C 255.191406 251.855469 257.109375 252.222656 258.765625 251.535156 C 260.429688 250.847656 261.519531 249.21875 261.519531 247.417969 L 261.519531 171.039062 C 261.519531 169.855469 261.035156 168.722656 260.199219 167.886719 " fill-opacity="1" fill-rule="evenodd"/></g></g></g></svg>