<svg xmlns="http://www.w3.org/2000/svg" xmlns:xlink="http://www.w3.org/1999/xlink" width="500" zoomAndPan="magnify" viewBox="0 0 375 374.999991" height="500" preserveAspectRatio="xMidYMid meet" version="1.0"><defs><clipPath id="7bd5e3c3a1"><path d="M 16.359375 142 L 226 142 L 226 250.535156 L 16.359375 250.535156 Z M 16.359375 142 " clip-rule="nonzero"/></clipPath><clipPath id="65ddc8b7dc"><path d="M 149 110.285156 L 358.359375 110.285156 L 358.359375 218 L 149 218 Z M 149 110.285156 " clip-rule="nonzero"/></clipPath></defs><g clip-path="url(#7bd5e3c3a1)"><path fill="#ff914d" d="M 225.304688 167.347656 L 225.304688 203.101562 C 225.308594 204.640625 225.234375 206.175781 225.085938 207.707031 C 224.9375 209.238281 224.710938 210.761719 224.414062 212.269531 C 224.117188 213.78125 223.742188 215.273438 223.300781 216.746094 C 222.855469 218.21875 222.335938 219.667969 221.75 221.089844 C 221.164062 222.511719 220.507812 223.902344 219.78125 225.261719 C 219.058594 226.621094 218.269531 227.9375 217.414062 229.21875 C 216.558594 230.5 215.644531 231.734375 214.667969 232.925781 C 213.695312 234.117188 212.660156 235.257812 211.574219 236.347656 C 210.488281 237.433594 209.347656 238.46875 208.160156 239.445312 C 206.96875 240.421875 205.734375 241.339844 204.453125 242.195312 C 203.175781 243.050781 201.855469 243.839844 200.5 244.566406 C 199.140625 245.292969 197.753906 245.949219 196.332031 246.539062 C 194.910156 247.128906 193.460938 247.648438 191.988281 248.09375 C 190.515625 248.539062 189.023438 248.914062 187.511719 249.214844 C 186.003906 249.515625 184.484375 249.742188 182.949219 249.890625 C 181.417969 250.042969 179.882812 250.117188 178.34375 250.117188 L 63.304688 250.117188 C 61.765625 250.117188 60.230469 250.039062 58.699219 249.890625 C 57.167969 249.738281 55.648438 249.511719 54.136719 249.210938 C 52.628906 248.910156 51.136719 248.539062 49.664062 248.089844 C 48.191406 247.644531 46.746094 247.125 45.324219 246.535156 C 43.902344 245.945312 42.511719 245.289062 41.15625 244.5625 C 39.796875 243.835938 38.480469 243.046875 37.199219 242.191406 C 35.921875 241.332031 34.6875 240.417969 33.5 239.441406 C 32.308594 238.464844 31.171875 237.429688 30.082031 236.339844 C 28.996094 235.253906 27.964844 234.113281 26.988281 232.921875 C 26.015625 231.730469 25.097656 230.496094 24.246094 229.214844 C 23.390625 227.933594 22.601562 226.617188 21.878906 225.257812 C 21.15625 223.898438 20.5 222.507812 19.910156 221.085938 C 19.324219 219.664062 18.808594 218.214844 18.363281 216.742188 C 17.917969 215.269531 17.546875 213.777344 17.25 212.269531 C 16.949219 210.757812 16.726562 209.238281 16.578125 207.707031 C 16.429688 206.175781 16.355469 204.636719 16.359375 203.101562 L 16.359375 189.359375 C 16.359375 187.824219 16.433594 186.289062 16.585938 184.757812 C 16.734375 183.230469 16.960938 181.710938 17.261719 180.203125 C 17.558594 178.695312 17.933594 177.203125 18.378906 175.734375 C 18.824219 174.261719 19.34375 172.816406 19.933594 171.394531 C 20.519531 169.976562 21.175781 168.585938 21.902344 167.230469 C 22.625 165.875 23.414062 164.558594 24.269531 163.277344 C 25.125 162 26.039062 160.765625 27.015625 159.578125 C 27.988281 158.390625 29.019531 157.25 30.109375 156.164062 C 31.195312 155.078125 32.332031 154.046875 33.523438 153.070312 C 34.710938 152.09375 35.945312 151.179688 37.222656 150.328125 C 38.5 149.472656 39.816406 148.683594 41.175781 147.957031 C 42.53125 147.234375 43.917969 146.578125 45.339844 145.988281 C 46.757812 145.398438 48.207031 144.882812 49.675781 144.4375 C 51.148438 143.988281 52.636719 143.617188 54.144531 143.316406 C 55.652344 143.015625 57.171875 142.792969 58.703125 142.640625 C 60.234375 142.488281 61.765625 142.414062 63.304688 142.414062 L 123.683594 142.414062 C 124.601562 142.414062 125.507812 142.503906 126.410156 142.683594 C 127.308594 142.863281 128.183594 143.125 129.03125 143.476562 C 129.878906 143.828125 130.683594 144.261719 131.449219 144.769531 C 132.210938 145.28125 132.917969 145.859375 133.566406 146.507812 C 134.214844 147.15625 134.792969 147.863281 135.304688 148.625 C 135.8125 149.390625 136.242188 150.195312 136.59375 151.042969 C 136.945312 151.890625 137.210938 152.765625 137.390625 153.664062 C 137.570312 154.5625 137.660156 155.472656 137.660156 156.390625 L 137.660156 158.152344 C 137.660156 159.070312 137.570312 159.976562 137.390625 160.878906 C 137.210938 161.777344 136.945312 162.652344 136.59375 163.5 C 136.242188 164.347656 135.8125 165.152344 135.304688 165.917969 C 134.792969 166.679688 134.214844 167.386719 133.566406 168.035156 C 132.917969 168.683594 132.210938 169.261719 131.449219 169.773438 C 130.683594 170.28125 129.878906 170.714844 129.03125 171.0625 C 128.183594 171.414062 127.308594 171.679688 126.410156 171.859375 C 125.507812 172.039062 124.601562 172.128906 123.683594 172.128906 L 60.707031 172.128906 C 60.167969 172.128906 59.636719 172.15625 59.101562 172.207031 C 58.570312 172.257812 58.039062 172.339844 57.515625 172.441406 C 56.988281 172.546875 56.46875 172.679688 55.957031 172.835938 C 55.445312 172.988281 54.941406 173.171875 54.445312 173.375 C 53.953125 173.582031 53.46875 173.8125 52.996094 174.0625 C 52.523438 174.316406 52.066406 174.59375 51.621094 174.890625 C 51.175781 175.191406 50.746094 175.507812 50.335938 175.851562 C 49.921875 176.191406 49.523438 176.550781 49.148438 176.929688 C 48.769531 177.308594 48.410156 177.707031 48.070312 178.121094 C 47.734375 178.535156 47.414062 178.96875 47.121094 179.414062 C 46.824219 179.859375 46.550781 180.320312 46.296875 180.792969 C 46.046875 181.265625 45.820312 181.75 45.617188 182.246094 C 45.414062 182.742188 45.234375 183.246094 45.082031 183.757812 C 44.925781 184.269531 44.796875 184.789062 44.695312 185.316406 C 44.59375 185.84375 44.515625 186.371094 44.464844 186.90625 C 44.417969 187.4375 44.390625 187.972656 44.394531 188.507812 L 44.394531 203.992188 C 44.394531 204.527344 44.421875 205.058594 44.476562 205.589844 C 44.527344 206.121094 44.609375 206.648438 44.710938 207.171875 C 44.816406 207.695312 44.949219 208.210938 45.105469 208.722656 C 45.257812 209.234375 45.4375 209.734375 45.644531 210.226562 C 45.847656 210.71875 46.078125 211.203125 46.328125 211.671875 C 46.582031 212.140625 46.855469 212.597656 47.152344 213.042969 C 47.449219 213.484375 47.769531 213.914062 48.105469 214.324219 C 48.445312 214.738281 48.804688 215.132812 49.183594 215.507812 C 49.558594 215.886719 49.953125 216.242188 50.367188 216.582031 C 50.78125 216.921875 51.207031 217.238281 51.652344 217.535156 C 52.097656 217.828125 52.554688 218.105469 53.023438 218.355469 C 53.496094 218.605469 53.976562 218.832031 54.46875 219.039062 C 54.964844 219.242188 55.464844 219.421875 55.976562 219.574219 C 56.484375 219.730469 57.003906 219.859375 57.527344 219.964844 C 58.050781 220.066406 58.578125 220.144531 59.109375 220.199219 C 59.640625 220.25 60.171875 220.277344 60.707031 220.277344 L 180.902344 220.277344 C 181.4375 220.277344 181.96875 220.25 182.5 220.199219 C 183.03125 220.148438 183.558594 220.070312 184.082031 219.964844 C 184.605469 219.863281 185.125 219.734375 185.632812 219.578125 C 186.144531 219.425781 186.648438 219.246094 187.140625 219.042969 C 187.636719 218.839844 188.117188 218.609375 188.589844 218.359375 C 189.058594 218.109375 189.515625 217.835938 189.960938 217.539062 C 190.40625 217.242188 190.835938 216.925781 191.246094 216.585938 C 191.660156 216.25 192.054688 215.890625 192.433594 215.515625 C 192.8125 215.136719 193.171875 214.742188 193.511719 214.332031 C 193.847656 213.917969 194.167969 213.488281 194.464844 213.046875 C 194.761719 212.601562 195.035156 212.144531 195.289062 211.675781 C 195.542969 211.207031 195.769531 210.722656 195.976562 210.230469 C 196.179688 209.738281 196.359375 209.234375 196.515625 208.726562 C 196.671875 208.214844 196.804688 207.699219 196.90625 207.175781 C 197.011719 206.652344 197.09375 206.125 197.144531 205.59375 C 197.199219 205.0625 197.226562 204.527344 197.226562 203.992188 L 197.226562 167.347656 C 197.226562 166.429688 197.316406 165.523438 197.496094 164.621094 C 197.675781 163.722656 197.9375 162.847656 198.289062 162 C 198.640625 161.152344 199.070312 160.347656 199.582031 159.582031 C 200.089844 158.820312 200.671875 158.113281 201.320312 157.464844 C 201.96875 156.816406 202.675781 156.238281 203.4375 155.726562 C 204.199219 155.21875 205.007812 154.785156 205.855469 154.4375 C 206.703125 154.085938 207.574219 153.820312 208.476562 153.640625 C 209.375 153.460938 210.285156 153.371094 211.203125 153.371094 C 212.125 153.367188 213.039062 153.453125 213.941406 153.628906 C 214.847656 153.804688 215.726562 154.070312 216.578125 154.417969 C 217.433594 154.765625 218.242188 155.195312 219.011719 155.703125 C 219.78125 156.214844 220.492188 156.792969 221.144531 157.441406 C 221.800781 158.089844 222.386719 158.796875 222.902344 159.558594 C 223.417969 160.324219 223.851562 161.132812 224.210938 161.980469 C 224.566406 162.832031 224.835938 163.707031 225.023438 164.609375 C 225.207031 165.515625 225.300781 166.425781 225.304688 167.347656 Z M 225.304688 167.347656 " fill-opacity="1" fill-rule="nonzero"/></g><g clip-path="url(#65ddc8b7dc)"><path fill="#ff914d" d="M 149.734375 193.066406 L 149.734375 157.300781 C 149.734375 155.761719 149.808594 154.230469 149.960938 152.699219 C 150.109375 151.167969 150.335938 149.652344 150.636719 148.144531 C 150.9375 146.636719 151.308594 145.148438 151.753906 143.675781 C 152.199219 142.207031 152.71875 140.761719 153.304688 139.339844 C 153.894531 137.917969 154.550781 136.53125 155.273438 135.175781 C 156 133.820312 156.785156 132.503906 157.640625 131.226562 C 158.496094 129.949219 159.410156 128.714844 160.382812 127.527344 C 161.359375 126.335938 162.386719 125.199219 163.476562 124.113281 C 164.5625 123.027344 165.699219 121.996094 166.886719 121.019531 C 168.074219 120.042969 169.308594 119.128906 170.585938 118.273438 C 171.863281 117.417969 173.179688 116.628906 174.535156 115.90625 C 175.890625 115.179688 177.277344 114.523438 178.695312 113.933594 C 180.117188 113.34375 181.5625 112.828125 183.03125 112.378906 C 184.503906 111.933594 185.992188 111.558594 187.5 111.257812 C 189.003906 110.957031 190.523438 110.734375 192.054688 110.582031 C 193.582031 110.429688 195.117188 110.351562 196.652344 110.351562 L 311.691406 110.351562 C 313.230469 110.351562 314.765625 110.425781 316.296875 110.578125 C 317.824219 110.726562 319.34375 110.953125 320.855469 111.253906 C 322.363281 111.550781 323.851562 111.925781 325.324219 112.371094 C 326.796875 112.816406 328.242188 113.332031 329.664062 113.921875 C 331.082031 114.511719 332.472656 115.167969 333.828125 115.890625 C 335.183594 116.617188 336.503906 117.40625 337.78125 118.257812 C 339.058594 119.113281 340.292969 120.027344 341.484375 121.003906 C 342.671875 121.980469 343.808594 123.011719 344.898438 124.097656 C 345.984375 125.183594 347.015625 126.324219 347.992188 127.511719 C 348.96875 128.699219 349.882812 129.933594 350.738281 131.210938 C 351.59375 132.492188 352.382812 133.808594 353.109375 135.164062 C 353.832031 136.519531 354.488281 137.910156 355.078125 139.332031 C 355.667969 140.75 356.183594 142.195312 356.632812 143.667969 C 357.078125 145.140625 357.449219 146.628906 357.75 148.136719 C 358.050781 149.648438 358.277344 151.167969 358.425781 152.695312 C 358.578125 154.226562 358.652344 155.761719 358.652344 157.300781 L 358.652344 171.039062 C 358.652344 172.574219 358.578125 174.109375 358.425781 175.636719 C 358.273438 177.167969 358.046875 178.683594 357.746094 180.191406 C 357.445312 181.699219 357.074219 183.1875 356.625 184.660156 C 356.179688 186.128906 355.660156 187.574219 355.074219 188.992188 C 354.484375 190.414062 353.828125 191.800781 353.101562 193.15625 C 352.378906 194.511719 351.589844 195.828125 350.734375 197.105469 C 349.882812 198.382812 348.964844 199.617188 347.992188 200.804688 C 347.015625 201.992188 345.984375 203.128906 344.898438 204.214844 C 343.8125 205.304688 342.675781 206.332031 341.488281 207.308594 C 340.300781 208.285156 339.066406 209.199219 337.789062 210.050781 C 336.511719 210.90625 335.195312 211.695312 333.839844 212.421875 C 332.484375 213.144531 331.097656 213.800781 329.675781 214.390625 C 328.257812 214.980469 326.8125 215.496094 325.339844 215.941406 C 323.871094 216.390625 322.382812 216.761719 320.875 217.0625 C 319.367188 217.363281 317.847656 217.589844 316.320312 217.742188 C 314.789062 217.894531 313.257812 217.96875 311.71875 217.96875 L 251.355469 217.96875 C 250.4375 217.96875 249.53125 217.882812 248.628906 217.703125 C 247.730469 217.523438 246.855469 217.257812 246.007812 216.90625 C 245.160156 216.554688 244.355469 216.125 243.59375 215.613281 C 242.828125 215.105469 242.121094 214.527344 241.472656 213.875 C 240.824219 213.226562 240.246094 212.523438 239.734375 211.757812 C 239.226562 210.996094 238.796875 210.191406 238.445312 209.34375 C 238.09375 208.496094 237.828125 207.621094 237.648438 206.722656 C 237.46875 205.820312 237.378906 204.910156 237.378906 203.992188 L 237.378906 202.246094 C 237.378906 201.328125 237.46875 200.421875 237.648438 199.519531 C 237.828125 198.621094 238.09375 197.746094 238.445312 196.898438 C 238.796875 196.050781 239.226562 195.246094 239.734375 194.480469 C 240.246094 193.71875 240.824219 193.011719 241.472656 192.363281 C 242.121094 191.714844 242.828125 191.136719 243.59375 190.625 C 244.355469 190.117188 245.160156 189.6875 246.007812 189.335938 C 246.855469 188.984375 247.730469 188.71875 248.628906 188.539062 C 249.53125 188.359375 250.4375 188.269531 251.355469 188.269531 L 314.320312 188.269531 C 314.855469 188.269531 315.390625 188.246094 315.925781 188.191406 C 316.460938 188.140625 316.992188 188.058594 317.515625 187.953125 C 318.042969 187.851562 318.5625 187.71875 319.078125 187.5625 C 319.589844 187.40625 320.09375 187.226562 320.589844 187.019531 C 321.085938 186.8125 321.570312 186.582031 322.042969 186.328125 C 322.515625 186.074219 322.976562 185.796875 323.421875 185.5 C 323.867188 185.199219 324.296875 184.878906 324.710938 184.539062 C 325.125 184.195312 325.519531 183.835938 325.898438 183.453125 C 326.277344 183.074219 326.636719 182.675781 326.972656 182.261719 C 327.3125 181.84375 327.632812 181.414062 327.925781 180.964844 C 328.222656 180.515625 328.496094 180.054688 328.75 179.582031 C 329 179.109375 329.226562 178.621094 329.429688 178.125 C 329.632812 177.628906 329.8125 177.125 329.964844 176.609375 C 330.117188 176.09375 330.246094 175.574219 330.347656 175.046875 C 330.449219 174.519531 330.527344 173.988281 330.574219 173.457031 C 330.625 172.921875 330.648438 172.386719 330.644531 171.847656 L 330.644531 156.472656 C 330.644531 155.941406 330.617188 155.40625 330.566406 154.875 C 330.511719 154.34375 330.433594 153.816406 330.332031 153.289062 C 330.226562 152.765625 330.097656 152.25 329.941406 151.738281 C 329.785156 151.226562 329.605469 150.722656 329.402344 150.230469 C 329.195312 149.734375 328.96875 149.253906 328.714844 148.78125 C 328.464844 148.3125 328.191406 147.851562 327.894531 147.410156 C 327.597656 146.964844 327.277344 146.535156 326.9375 146.121094 C 326.597656 145.710938 326.242188 145.3125 325.863281 144.9375 C 325.484375 144.558594 325.089844 144.199219 324.675781 143.863281 C 324.261719 143.523438 323.832031 143.203125 323.386719 142.90625 C 322.945312 142.609375 322.484375 142.335938 322.015625 142.085938 C 321.542969 141.832031 321.058594 141.605469 320.566406 141.402344 C 320.074219 141.199219 319.570312 141.019531 319.058594 140.863281 C 318.546875 140.707031 318.027344 140.578125 317.503906 140.476562 C 316.980469 140.371094 316.453125 140.292969 315.917969 140.242188 C 315.386719 140.1875 314.855469 140.164062 314.320312 140.164062 L 194.125 140.164062 C 193.589844 140.164062 193.054688 140.1875 192.523438 140.242188 C 191.992188 140.292969 191.464844 140.371094 190.941406 140.476562 C 190.414062 140.578125 189.898438 140.707031 189.386719 140.863281 C 188.875 141.019531 188.371094 141.199219 187.878906 141.402344 C 187.382812 141.605469 186.902344 141.832031 186.429688 142.085938 C 185.957031 142.335938 185.5 142.609375 185.054688 142.90625 C 184.609375 143.203125 184.183594 143.523438 183.769531 143.863281 C 183.355469 144.199219 182.960938 144.558594 182.582031 144.9375 C 182.203125 145.3125 181.84375 145.710938 181.503906 146.121094 C 181.167969 146.535156 180.847656 146.964844 180.550781 147.410156 C 180.253906 147.851562 179.980469 148.3125 179.726562 148.78125 C 179.476562 149.253906 179.246094 149.734375 179.042969 150.230469 C 178.835938 150.722656 178.65625 151.226562 178.503906 151.738281 C 178.347656 152.25 178.21875 152.765625 178.113281 153.289062 C 178.007812 153.816406 177.929688 154.34375 177.878906 154.875 C 177.824219 155.40625 177.800781 155.941406 177.800781 156.472656 L 177.800781 193.09375 C 177.800781 194.011719 177.710938 194.917969 177.53125 195.820312 C 177.351562 196.71875 177.085938 197.59375 176.734375 198.441406 C 176.382812 199.289062 175.953125 200.09375 175.445312 200.855469 C 174.933594 201.621094 174.355469 202.328125 173.707031 202.976562 C 173.054688 203.625 172.351562 204.203125 171.585938 204.714844 C 170.824219 205.222656 170.019531 205.652344 169.171875 206.003906 C 168.324219 206.355469 167.449219 206.621094 166.550781 206.800781 C 165.648438 206.980469 164.742188 207.070312 163.824219 207.070312 C 162.898438 207.078125 161.984375 206.992188 161.078125 206.820312 C 160.167969 206.644531 159.289062 206.382812 158.433594 206.035156 C 157.578125 205.6875 156.765625 205.257812 155.996094 204.746094 C 155.226562 204.238281 154.511719 203.65625 153.859375 203.003906 C 153.203125 202.355469 152.617188 201.644531 152.101562 200.878906 C 151.589844 200.109375 151.15625 199.300781 150.800781 198.449219 C 150.445312 197.59375 150.179688 196.714844 150 195.808594 C 149.820312 194.902344 149.734375 193.988281 149.734375 193.066406 Z M 149.734375 193.066406 " fill-opacity="1" fill-rule="nonzero"/></g></svg>